HIERARCHY
ROOT joint_Root
{
	OFFSET 0.0 0.0 0.0
	CHANNELS 6 Xposition Yposition Zposition Zrotation Xrotation Yrotation 
	JOINT Hips
	{
		OFFSET 4.5925 91.4895 -427.239
		CHANNELS 6 Xposition Yposition Zposition Zrotation Xrotation Yrotation 
		JOINT Spine
		{
			OFFSET 15.7357 0.0 0.0
			CHANNELS 6 Xposition Yposition Zposition Zrotation Xrotation Yrotation 
			JOINT Chest
			{
				OFFSET 8.98455 -0.406207 0.0
				CHANNELS 6 Xposition Yposition Zposition Zrotation Xrotation Yrotation 
				JOINT Neck
				{
					OFFSET 16.3773 0.0 0.0
					CHANNELS 6 Xposition Yposition Zposition Zrotation Xrotation Yrotation 
					JOINT Head
					{
						OFFSET 6.45672 0.0 0.0
						CHANNELS 6 Xposition Yposition Zposition Zrotation Xrotation Yrotation 
						End Site
						{
							OFFSET 0.0 0.0 0.0
						}
					}
				}
				JOINT Shoulder_L
				{
					OFFSET 12.9942 -0.242716 4.98039
					CHANNELS 6 Xposition Yposition Zposition Zrotation Xrotation Yrotation 
					JOINT UpperArm_L
					{
						OFFSET 5.34809 0.0 0.0
						CHANNELS 6 Xposition Yposition Zposition Zrotation Xrotation Yrotation 
						JOINT LowerArm_L
						{
							OFFSET 24.3286 1.87007e-05 0.0
							CHANNELS 6 Xposition Yposition Zposition Zrotation Xrotation Yrotation 
							JOINT Hand_L
							{
								OFFSET 22.2916 0.0 0.0
								CHANNELS 6 Xposition Yposition Zposition Zrotation Xrotation Yrotation 
								End Site
								{
									OFFSET 0.0 0.0 0.0
								}
							}
						}
					}
				}
				JOINT Shoulder_R
				{
					OFFSET 12.9945 -0.242716 -4.98039
					CHANNELS 6 Xposition Yposition Zposition Zrotation Xrotation Yrotation 
					JOINT UpperArm_R
					{
						OFFSET -5.34813 0.0 0.0
						CHANNELS 6 Xposition Yposition Zposition Zrotation Xrotation Yrotation 
						JOINT LowerArm_R
						{
							OFFSET -24.3289 0.000322201 0.0
							CHANNELS 6 Xposition Yposition Zposition Zrotation Xrotation Yrotation 
							JOINT Hand_R
							{
								OFFSET -22.2915 -0.000108084 0.0
								CHANNELS 6 Xposition Yposition Zposition Zrotation Xrotation Yrotation 
								End Site
								{
									OFFSET 0.0 0.0 0.0
								}
							}
						}
					}
				}
			}
		}
		JOINT UpperLeg_L
		{
			OFFSET -2.19248 -6.46944 0.0
			CHANNELS 6 Xposition Yposition Zposition Zrotation Xrotation Yrotation 
			JOINT LowerLeg_L
			{
				OFFSET 39.0811 0.0 -1.23785e-05
				CHANNELS 6 Xposition Yposition Zposition Zrotation Xrotation Yrotation 
				JOINT Foot_L
				{
					OFFSET 40.9854 0.0 -1.26872e-05
					CHANNELS 6 Xposition Yposition Zposition Zrotation Xrotation Yrotation 
					JOINT Toes_L
					{
						OFFSET 11.7543 0.0 0.0
						CHANNELS 6 Xposition Yposition Zposition Zrotation Xrotation Yrotation 
						End Site
						{
							OFFSET 0.0 0.0 0.0
						}
					}
				}
			}
		}
		JOINT UpperLeg_R
		{
			OFFSET -2.19251 6.46944 0.0
			CHANNELS 6 Xposition Yposition Zposition Zrotation Xrotation Yrotation 
			JOINT LowerLeg_R
			{
				OFFSET -39.0811 -0.00228153 -0.0401928
				CHANNELS 6 Xposition Yposition Zposition Zrotation Xrotation Yrotation 
				JOINT Foot_R
				{
					OFFSET -40.9854 0.0 0.0
					CHANNELS 6 Xposition Yposition Zposition Zrotation Xrotation Yrotation 
					JOINT Toes_R
					{
						OFFSET -11.7543 0.0 0.0
						CHANNELS 6 Xposition Yposition Zposition Zrotation Xrotation Yrotation 
						End Site
						{
							OFFSET 0.0 0.0 0.0
						}
					}
				}
			}
		}
	}
}
MOTION
Frames:	7
Frame Time:	0.0333333
0.000000 0.000000 0.000000 0.000000 0.000000 -0.000000 -0.289833 90.560400 2.474210 89.028000 -2.954670 11.323400 15.735700 0.000005 -0.000001 93.595900 82.962200 -96.119500 8.984550 -0.406207 -0.000000 6.307540 0.912239 -5.092040 16.377300 -0.000001 -0.000001 25.472200 0.306172 2.793690 6.456720 -0.000001 -0.000000 11.929600 0.200259 -9.292520 12.994200 -0.242716 4.980390 -91.051700 3.199730 -71.795000 5.348090 -0.000007 -0.000001 -63.108500 33.046100 -12.091500 24.328600 0.000019 0.000005 7.762850 24.614900 -18.122700 22.291600 -0.000001 0.000005 8.459460 5.229850 1.959340 12.994500 -0.242716 -4.980390 90.810800 -2.518850 -72.150700 -5.348130 -0.000001 -0.000004 -45.481500 -55.576500 -58.139300 -24.328900 0.000322 -0.000009 -1.019270 -5.097980 -11.310300 -22.291500 -0.000108 -0.000004 23.300200 5.266000 1.005240 -2.192480 -6.469440 -0.000000 -173.466000 -13.138000 3.225670 39.081100 -0.000007 -0.000012 -0.197936 0.330826 30.892700 40.985400 -0.000006 -0.000013 0.152890 5.051750 -72.343300 11.754300 -0.000000 0.000003 -0.000200 -0.001849 -16.647300 -2.192510 6.469440 -0.000001 171.883000 23.610600 -174.224000 -39.081100 -0.002282 -0.040193 -0.232742 0.420999 29.278800 -40.985400 0.000008 0.000006 3.058020 14.844100 -72.366100 -11.754300 -0.000006 -0.000006 -0.001813 -0.026354 -17.644700
0.000000 0.000000 0.000000 0.000000 0.000000 -0.000000 -0.229660 90.536200 2.534280 88.954900 -3.486710 11.437300 15.735700 0.000005 -0.000001 93.285700 82.948100 -95.768500 8.984550 -0.406207 -0.000000 6.338120 0.836803 -5.006600 16.377300 -0.000001 -0.000001 25.512400 0.396307 2.617370 6.456720 -0.000001 -0.000000 11.872500 0.365422 -9.448560 12.994200 -0.242716 4.980390 -91.062900 3.236220 -71.807600 5.348090 -0.000007 -0.000001 -63.283600 32.896000 -11.936600 24.328600 0.000019 0.000005 7.860830 24.534400 -18.391600 22.291600 -0.000001 0.000005 8.337740 5.231200 1.924540 12.994500 -0.242716 -4.980390 90.767300 -2.398440 -72.254400 -5.348130 -0.000001 -0.000004 -48.549700 -56.012400 -59.545800 -24.328900 0.000322 -0.000009 -0.921550 -5.541790 -9.446400 -22.291500 -0.000108 -0.000004 23.558900 5.231240 1.923080 -2.192480 -6.469440 -0.000000 -173.327000 -13.429100 3.442140 39.081100 -0.000007 -0.000012 -0.201636 0.335849 30.979900 40.985400 -0.000006 -0.000013 0.128043 4.863240 -72.486500 11.754300 -0.000000 0.000003 -0.000204 -0.001885 -16.648600 -2.192510 6.469440 -0.000001 171.933000 23.260500 -174.198000 -39.081100 -0.002282 -0.040193 -0.232677 0.419368 29.367000 -40.985400 0.000008 0.000006 3.075350 15.019900 -72.397000 -11.754300 -0.000006 -0.000006 -0.001618 -0.023833 -17.542200
0.000000 0.000000 0.000000 0.000000 0.000000 -0.000000 -0.155241 90.519000 2.599510 88.927000 -4.149650 11.605100 15.735700 0.000005 -0.000001 92.989600 82.929900 -95.412300 8.984550 -0.406207 -0.000000 6.376080 0.764591 -4.882670 16.377300 -0.000001 -0.000001 25.566800 0.462327 2.421700 6.456720 -0.000001 -0.000000 11.857200 0.526885 -9.502100 12.994200 -0.242716 4.980390 -91.076400 3.286880 -71.856600 5.348090 -0.000007 -0.000001 -63.414100 33.073000 -11.788700 24.328600 0.000019 0.000005 7.880780 24.260800 -18.617400 22.291600 -0.000001 0.000005 8.312980 5.234550 1.837680 12.994500 -0.242716 -4.980390 90.738500 -2.312570 -72.282900 -5.348130 -0.000001 -0.000004 -50.509400 -55.912300 -60.750200 -24.328900 0.000322 -0.000009 -0.917186 -6.074270 -8.593370 -22.291500 -0.000108 -0.000004 23.532900 5.210030 2.466830 -2.192480 -6.469440 -0.000000 -173.192000 -13.897500 3.787950 39.081100 -0.000007 -0.000012 -0.201917 0.336215 30.987700 40.985400 -0.000006 -0.000013 0.121391 4.692950 -72.609000 11.754300 -0.000000 0.000003 -0.000210 -0.001927 -16.650100 -2.192510 6.469440 -0.000001 171.921000 22.775500 -174.116000 -39.081100 -0.002282 -0.040193 -0.235632 0.423496 29.431900 -40.985400 0.000008 0.000006 3.091150 15.261400 -72.421300 -11.754300 -0.000006 -0.000006 -0.001680 -0.024634 -17.574800
0.000000 0.000000 0.000000 0.000000 0.000000 -0.000000 -0.071485 90.506700 2.630770 88.817100 -4.904390 11.707900 15.735700 0.000005 -0.000001 92.459700 82.937800 -94.775200 8.984550 -0.406207 -0.000000 6.362730 0.632655 -4.660990 16.377300 -0.000001 -0.000001 25.572600 0.486097 2.348330 6.456720 -0.000001 -0.000000 11.839700 0.635640 -9.558650 12.994200 -0.242716 4.980390 -91.081700 3.313140 -71.907100 5.348090 -0.000007 -0.000001 -63.530600 33.332400 -11.642600 24.328600 0.000019 0.000005 7.944920 24.019300 -18.924900 22.291600 -0.000001 0.000005 8.054960 5.236670 1.782580 12.994500 -0.242716 -4.980390 90.745000 -2.334160 -72.292800 -5.348130 -0.000001 -0.000004 -51.492000 -55.286900 -61.925100 -24.328900 0.000322 -0.000009 -0.931736 -6.234500 -8.507670 -22.291500 -0.000108 -0.000004 23.321700 5.201920 2.671310 -2.192480 -6.469440 -0.000000 -173.028000 -14.287700 4.024320 39.081100 -0.000007 -0.000012 -0.203030 0.337379 31.039300 40.985400 -0.000006 -0.000013 0.080556 4.382300 -72.730900 11.754300 -0.000000 0.000003 -0.000221 -0.002011 -16.653200 -2.192510 6.469440 -0.000001 172.051000 22.267800 -174.139000 -39.081100 -0.002282 -0.040193 -0.234847 0.421505 29.466800 -40.985400 0.000008 0.000006 3.104600 15.492200 -72.383400 -11.754300 -0.000006 -0.000006 -0.001613 -0.023761 -17.539300
0.000000 0.000000 0.000000 0.000000 0.000000 -0.000000 0.039723 90.488400 2.649640 88.762300 -5.769370 11.779900 15.735700 0.000005 -0.000001 92.042400 82.952200 -94.259600 8.984550 -0.406207 -0.000000 6.334910 0.528488 -4.458810 16.377300 -0.000001 -0.000001 25.598700 0.417130 2.477000 6.456720 -0.000001 -0.000000 11.722600 0.641360 -9.584400 12.994200 -0.242716 4.980390 -91.077800 3.315940 -71.982300 5.348090 -0.000007 -0.000001 -63.640500 33.601300 -11.583800 24.328600 0.000019 0.000005 8.011090 24.018600 -19.073600 22.291600 -0.000001 0.000005 8.082830 5.239900 1.698280 12.994500 -0.242716 -4.980390 90.773400 -2.415930 -72.243600 -5.348130 -0.000001 -0.000004 -51.765000 -54.364400 -63.200600 -24.328900 0.000322 -0.000009 -1.086560 -6.625450 -9.325650 -22.291500 -0.000108 -0.000004 23.041700 5.204330 2.610220 -2.192480 -6.469440 -0.000000 -172.918000 -14.807500 4.246840 39.081100 -0.000007 -0.000012 -0.204261 0.338775 31.087800 40.985400 -0.000006 -0.000013 0.054705 4.054830 -72.859800 11.754300 -0.000000 0.000003 -0.000212 -0.001948 -16.650900 -2.192510 6.469440 -0.000001 172.178000 21.610400 -174.281000 -39.081100 -0.002282 -0.040193 -0.231857 0.414215 29.585000 -40.985400 0.000008 0.000006 3.107120 15.691500 -72.365600 -11.754300 -0.000006 -0.000006 -0.001694 -0.024822 -17.582400
0.000000 0.000000 0.000000 0.000000 0.000000 -0.000000 0.159740 90.489300 2.639170 88.719500 -6.650390 11.879600 15.735700 0.000005 -0.000001 91.451300 82.955700 -93.581100 8.984550 -0.406207 -0.000000 6.328870 0.382427 -4.275850 16.377300 -0.000001 -0.000001 25.583400 0.245356 2.745320 6.456720 -0.000001 -0.000000 11.548900 0.478700 -9.457060 12.994200 -0.242716 4.980390 -91.067500 3.294390 -72.035500 5.348090 -0.000007 -0.000001 -63.670200 33.836200 -11.727300 24.328600 0.000019 0.000005 7.910940 23.946600 -18.898700 22.291600 -0.000001 0.000005 8.276900 5.247210 1.506300 12.994500 -0.242716 -4.980390 90.815600 -2.541230 -72.199200 -5.348130 -0.000001 -0.000004 -51.451500 -53.233600 -64.491100 -24.328900 0.000322 -0.000009 -1.402850 -7.158360 -11.109200 -22.291500 -0.000108 -0.000004 22.639500 5.214670 2.348220 -2.192480 -6.469440 -0.000000 -172.839000 -15.321400 4.518120 39.081100 -0.000007 -0.000012 -0.199914 0.332113 31.046000 40.985400 -0.000006 -0.000013 0.024005 3.674630 -72.923800 11.754300 -0.000000 0.000003 -0.000220 -0.002009 -16.653100 -2.192510 6.469440 -0.000001 172.265000 20.936900 -174.369000 -39.081100 -0.002282 -0.040193 -0.236684 0.422227 29.613500 -40.985400 0.000008 0.000006 3.092770 15.937300 -72.279400 -11.754300 -0.000006 -0.000006 -0.001695 -0.024827 -17.582600
0.000000 0.000000 0.000000 0.000000 0.000000 -0.000000 0.264989 90.476200 2.607810 88.658300 -7.502690 11.953600 15.735700 0.000005 -0.000001 90.759900 82.968500 -92.791300 8.984550 -0.406207 -0.000000 6.302690 0.211824 -4.069880 16.377300 -0.000001 -0.000001 25.559600 -0.003676 3.064300 6.456720 -0.000001 -0.000000 11.452900 0.198626 -9.218230 12.994200 -0.242716 4.980390 -91.064200 3.298850 -72.109700 5.348090 -0.000007 -0.000001 -63.651100 33.930800 -11.888300 24.328600 0.000019 0.000005 7.945170 24.167700 -18.823900 22.291600 -0.000001 0.000005 8.392570 5.247580 1.496630 12.994500 -0.242716 -4.980390 90.863600 -2.673000 -72.087100 -5.348130 -0.000001 -0.000004 -50.961300 -52.077400 -66.228300 -24.328900 0.000322 -0.000009 -1.878370 -7.892400 -13.424400 -22.291500 -0.000108 -0.000004 22.302200 5.231940 1.904870 -2.192480 -6.469440 -0.000000 -172.736000 -15.791700 4.686860 39.081100 -0.000007 -0.000012 -0.200450 0.332196 31.107600 40.985400 -0.000006 -0.000013 -0.006204 3.336450 -73.014200 11.754300 -0.000000 0.000003 -0.000213 -0.001950 -16.651000 -2.192510 6.469440 -0.000001 172.411000 20.341800 -174.558000 -39.081100 -0.002282 -0.040193 -0.236214 0.419157 29.745100 -40.985400 0.000008 0.000006 3.106220 16.119800 -72.219500 -11.754300 -0.000006 -0.000006 -0.001741 -0.025421 -17.606800
